<mxfile host="app.diagrams.net" agent="Mozilla/5.0 (Macintosh; Intel Mac OS X 10_15_7) AppleWebKit/537.36 (KHTML, like Gecko) Chrome/128.0.0.0 Safari/537.36" version="26.1.1">
  <diagram name="Page-1" id="LSuhjfJNGKuaA5duxOki">
    <mxGraphModel dx="1434" dy="795" grid="1" gridSize="10" guides="1" tooltips="1" connect="1" arrows="1" fold="1" page="1" pageScale="1" pageWidth="850" pageHeight="1100" math="0" shadow="0">
      <root>
        <mxCell id="0" />
        <mxCell id="1" parent="0" />
        <mxCell id="7HdaX9VJP-AKowgcOoUk-99" value="" style="whiteSpace=wrap;html=1;aspect=fixed;fillColor=#ffe6cc;strokeColor=#d79b00;strokeWidth=0;" vertex="1" parent="1">
          <mxGeometry x="650" y="240" width="140" height="140" as="geometry" />
        </mxCell>
        <mxCell id="7HdaX9VJP-AKowgcOoUk-100" value="&lt;font style=&quot;font-size: 22px;&quot;&gt;&lt;font style=&quot;color: rgb(204, 102, 0);&quot;&gt;ADC&lt;/font&gt;&lt;br&gt;&lt;/font&gt;" style="text;html=1;align=center;verticalAlign=middle;whiteSpace=wrap;rounded=0;" vertex="1" parent="1">
          <mxGeometry x="690" y="240" width="60" height="30" as="geometry" />
        </mxCell>
        <mxCell id="7HdaX9VJP-AKowgcOoUk-101" value="&lt;span style=&quot;font-family: &amp;quot;Google Sans&amp;quot;, Arial, sans-serif; font-size: 32px; text-align: left;&quot;&gt;&lt;font style=&quot;color: rgb(255, 255, 255);&quot;&gt;Φ&lt;/font&gt;&lt;/span&gt;" style="shape=hexagon;perimeter=hexagonPerimeter2;whiteSpace=wrap;html=1;fixedSize=1;fillColor=#f0a30a;fontColor=#000000;strokeColor=none;" vertex="1" parent="1">
          <mxGeometry x="680" y="285" width="80" height="50" as="geometry" />
        </mxCell>
        <mxCell id="7HdaX9VJP-AKowgcOoUk-102" value="" style="group" vertex="1" connectable="0" parent="1">
          <mxGeometry x="670" y="265" width="90" height="90" as="geometry" />
        </mxCell>
        <mxCell id="7HdaX9VJP-AKowgcOoUk-103" value="" style="endArrow=none;html=1;rounded=0;strokeWidth=5;fillColor=#f0a30a;strokeColor=#CC6600;" edge="1" parent="7HdaX9VJP-AKowgcOoUk-102">
          <mxGeometry width="50" height="50" relative="1" as="geometry">
            <mxPoint y="90" as="sourcePoint" />
            <mxPoint x="30" y="60" as="targetPoint" />
            <Array as="points">
              <mxPoint y="60" />
            </Array>
          </mxGeometry>
        </mxCell>
        <mxCell id="7HdaX9VJP-AKowgcOoUk-104" value="" style="endArrow=none;html=1;rounded=0;strokeWidth=5;fillColor=#f0a30a;strokeColor=#CC6600;" edge="1" parent="7HdaX9VJP-AKowgcOoUk-102">
          <mxGeometry width="50" height="50" relative="1" as="geometry">
            <mxPoint x="30" y="60" as="sourcePoint" />
            <mxPoint x="60" y="30" as="targetPoint" />
            <Array as="points">
              <mxPoint x="30" y="30" />
            </Array>
          </mxGeometry>
        </mxCell>
        <mxCell id="7HdaX9VJP-AKowgcOoUk-105" value="" style="endArrow=none;html=1;rounded=0;strokeWidth=5;fillColor=#f0a30a;strokeColor=#CC6600;" edge="1" parent="7HdaX9VJP-AKowgcOoUk-102">
          <mxGeometry width="50" height="50" relative="1" as="geometry">
            <mxPoint x="60" y="30" as="sourcePoint" />
            <mxPoint x="90" as="targetPoint" />
            <Array as="points">
              <mxPoint x="60" />
            </Array>
          </mxGeometry>
        </mxCell>
        <mxCell id="7HdaX9VJP-AKowgcOoUk-6" value="" style="rounded=0;whiteSpace=wrap;html=1;fillColor=#e1d5e7;strokeColor=none;" vertex="1" parent="1">
          <mxGeometry x="200" y="240" width="250" height="140" as="geometry" />
        </mxCell>
        <mxCell id="7HdaX9VJP-AKowgcOoUk-5" value="" style="endArrow=classic;html=1;rounded=0;strokeWidth=3;" edge="1" parent="1">
          <mxGeometry width="50" height="50" relative="1" as="geometry">
            <mxPoint x="150" y="309.5" as="sourcePoint" />
            <mxPoint x="240" y="309.5" as="targetPoint" />
          </mxGeometry>
        </mxCell>
        <mxCell id="7HdaX9VJP-AKowgcOoUk-7" value="&lt;font style=&quot;font-size: 22px; color: rgb(76, 0, 153);&quot;&gt;LNA&lt;/font&gt;" style="text;html=1;align=center;verticalAlign=middle;whiteSpace=wrap;rounded=0;" vertex="1" parent="1">
          <mxGeometry x="290" y="245" width="60" height="30" as="geometry" />
        </mxCell>
        <mxCell id="7HdaX9VJP-AKowgcOoUk-8" value="&lt;span style=&quot;font-family: &amp;quot;Google Sans&amp;quot;, Arial, sans-serif; text-align: start;&quot;&gt;&lt;font style=&quot;color: rgb(255, 255, 255); font-size: 24px;&quot;&gt;φ&lt;/font&gt;&lt;/span&gt;" style="triangle;whiteSpace=wrap;html=1;fillColor=#6a00ff;fontColor=#ffffff;strokeColor=none;" vertex="1" parent="1">
          <mxGeometry x="360" y="270" width="60" height="80" as="geometry" />
        </mxCell>
        <mxCell id="7HdaX9VJP-AKowgcOoUk-10" value="&lt;b&gt;&lt;font style=&quot;font-size: 20px;&quot;&gt;+&lt;/font&gt;&lt;/b&gt;" style="ellipse;whiteSpace=wrap;html=1;aspect=fixed;strokeColor=none;fillColor=#000000;fontColor=#ffffff;" vertex="1" parent="1">
          <mxGeometry x="240" y="290" width="40" height="40" as="geometry" />
        </mxCell>
        <mxCell id="7HdaX9VJP-AKowgcOoUk-11" value="&lt;font style=&quot;font-size: 24px;&quot;&gt;x&lt;sub&gt;1&lt;/sub&gt;&lt;/font&gt;" style="text;html=1;align=center;verticalAlign=middle;whiteSpace=wrap;rounded=0;" vertex="1" parent="1">
          <mxGeometry x="100" y="295" width="60" height="30" as="geometry" />
        </mxCell>
        <mxCell id="7HdaX9VJP-AKowgcOoUk-12" value="&lt;font style=&quot;font-size: 24px;&quot;&gt;z&lt;sub&gt;11&lt;/sub&gt;&lt;/font&gt;" style="text;html=1;align=center;verticalAlign=middle;whiteSpace=wrap;rounded=0;" vertex="1" parent="1">
          <mxGeometry x="230" y="350" width="60" height="30" as="geometry" />
        </mxCell>
        <mxCell id="7HdaX9VJP-AKowgcOoUk-13" value="" style="endArrow=classic;html=1;rounded=0;strokeWidth=3;entryX=0;entryY=0.5;entryDx=0;entryDy=0;" edge="1" parent="1">
          <mxGeometry width="50" height="50" relative="1" as="geometry">
            <mxPoint x="280" y="309.5" as="sourcePoint" />
            <mxPoint x="355" y="310" as="targetPoint" />
          </mxGeometry>
        </mxCell>
        <mxCell id="7HdaX9VJP-AKowgcOoUk-17" value="" style="endArrow=classic;html=1;rounded=0;strokeWidth=3;entryX=0.5;entryY=1;entryDx=0;entryDy=0;exitX=0.5;exitY=0;exitDx=0;exitDy=0;" edge="1" parent="1" source="7HdaX9VJP-AKowgcOoUk-12" target="7HdaX9VJP-AKowgcOoUk-10">
          <mxGeometry width="50" height="50" relative="1" as="geometry">
            <mxPoint x="160" y="324.5" as="sourcePoint" />
            <mxPoint x="250" y="324.5" as="targetPoint" />
            <Array as="points">
              <mxPoint x="260" y="340" />
            </Array>
          </mxGeometry>
        </mxCell>
        <mxCell id="7HdaX9VJP-AKowgcOoUk-19" value="" style="rounded=0;whiteSpace=wrap;html=1;fillColor=#dae8fc;strokeColor=none;" vertex="1" parent="1">
          <mxGeometry x="500" y="240" width="120" height="140" as="geometry" />
        </mxCell>
        <mxCell id="7HdaX9VJP-AKowgcOoUk-20" value="" style="endArrow=classic;html=1;rounded=0;strokeWidth=3;entryX=0.5;entryY=1;entryDx=0;entryDy=0;exitX=0.5;exitY=0;exitDx=0;exitDy=0;" edge="1" parent="1" source="7HdaX9VJP-AKowgcOoUk-22" target="7HdaX9VJP-AKowgcOoUk-21">
          <mxGeometry width="50" height="50" relative="1" as="geometry">
            <mxPoint x="550" y="360" as="sourcePoint" />
            <mxPoint x="640" y="350" as="targetPoint" />
          </mxGeometry>
        </mxCell>
        <mxCell id="7HdaX9VJP-AKowgcOoUk-21" value="&lt;b&gt;&lt;font style=&quot;font-size: 20px; color: rgb(255, 255, 255);&quot;&gt;+&lt;/font&gt;&lt;/b&gt;" style="ellipse;whiteSpace=wrap;html=1;aspect=fixed;fillColor=#000000;strokeColor=none;" vertex="1" parent="1">
          <mxGeometry x="540" y="290" width="40" height="40" as="geometry" />
        </mxCell>
        <mxCell id="7HdaX9VJP-AKowgcOoUk-22" value="&lt;font style=&quot;font-size: 24px;&quot;&gt;z&lt;/font&gt;&lt;font style=&quot;font-size: 20px;&quot;&gt;&lt;sub&gt;12&lt;/sub&gt;&lt;/font&gt;" style="text;html=1;align=center;verticalAlign=middle;whiteSpace=wrap;rounded=0;" vertex="1" parent="1">
          <mxGeometry x="530" y="350" width="60" height="30" as="geometry" />
        </mxCell>
        <mxCell id="7HdaX9VJP-AKowgcOoUk-18" value="" style="endArrow=classic;html=1;rounded=0;strokeWidth=3;entryX=0;entryY=0.5;entryDx=0;entryDy=0;" edge="1" parent="1">
          <mxGeometry width="50" height="50" relative="1" as="geometry">
            <mxPoint x="415" y="309.5" as="sourcePoint" />
            <mxPoint x="540" y="309.5" as="targetPoint" />
          </mxGeometry>
        </mxCell>
        <mxCell id="7HdaX9VJP-AKowgcOoUk-28" value="" style="endArrow=classic;html=1;rounded=0;strokeWidth=3;entryX=0;entryY=0.5;entryDx=0;entryDy=0;" edge="1" parent="1" target="7HdaX9VJP-AKowgcOoUk-101">
          <mxGeometry width="50" height="50" relative="1" as="geometry">
            <mxPoint x="580" y="309.5" as="sourcePoint" />
            <mxPoint x="720.0886917960088" y="309.889135254989" as="targetPoint" />
          </mxGeometry>
        </mxCell>
        <mxCell id="7HdaX9VJP-AKowgcOoUk-29" value="&lt;font style=&quot;color: rgb(0, 0, 204); font-size: 18px;&quot;&gt;Remaining Hardware&lt;/font&gt;" style="text;html=1;align=center;verticalAlign=middle;whiteSpace=wrap;rounded=0;" vertex="1" parent="1">
          <mxGeometry x="545" y="250" width="30" height="30" as="geometry" />
        </mxCell>
        <mxCell id="7HdaX9VJP-AKowgcOoUk-32" value="" style="endArrow=classic;html=1;rounded=0;strokeWidth=3;exitX=1;exitY=0.5;exitDx=0;exitDy=0;" edge="1" parent="1" source="7HdaX9VJP-AKowgcOoUk-101">
          <mxGeometry width="50" height="50" relative="1" as="geometry">
            <mxPoint x="765" y="310" as="sourcePoint" />
            <mxPoint x="835" y="310" as="targetPoint" />
          </mxGeometry>
        </mxCell>
        <mxCell id="7HdaX9VJP-AKowgcOoUk-53" value="" style="rounded=0;whiteSpace=wrap;html=1;fillColor=#e1d5e7;strokeColor=none;" vertex="1" parent="1">
          <mxGeometry x="210" y="445" width="250" height="140" as="geometry" />
        </mxCell>
        <mxCell id="7HdaX9VJP-AKowgcOoUk-54" value="" style="endArrow=classic;html=1;rounded=0;strokeWidth=3;" edge="1" parent="1">
          <mxGeometry width="50" height="50" relative="1" as="geometry">
            <mxPoint x="160" y="514.5" as="sourcePoint" />
            <mxPoint x="250" y="514.5" as="targetPoint" />
          </mxGeometry>
        </mxCell>
        <mxCell id="7HdaX9VJP-AKowgcOoUk-55" value="&lt;font style=&quot;font-size: 22px; color: rgb(76, 0, 153);&quot;&gt;LNA&lt;/font&gt;" style="text;html=1;align=center;verticalAlign=middle;whiteSpace=wrap;rounded=0;" vertex="1" parent="1">
          <mxGeometry x="300" y="450" width="60" height="30" as="geometry" />
        </mxCell>
        <mxCell id="7HdaX9VJP-AKowgcOoUk-56" value="&lt;span style=&quot;font-family: &amp;quot;Google Sans&amp;quot;, Arial, sans-serif; text-align: start;&quot;&gt;&lt;font style=&quot;color: rgb(255, 255, 255); font-size: 24px;&quot;&gt;φ&lt;/font&gt;&lt;/span&gt;" style="triangle;whiteSpace=wrap;html=1;fillColor=#6a00ff;fontColor=#ffffff;strokeColor=none;" vertex="1" parent="1">
          <mxGeometry x="370" y="475" width="60" height="80" as="geometry" />
        </mxCell>
        <mxCell id="7HdaX9VJP-AKowgcOoUk-57" value="&lt;b&gt;&lt;font style=&quot;font-size: 20px; color: rgb(255, 255, 255);&quot;&gt;+&lt;/font&gt;&lt;/b&gt;" style="ellipse;whiteSpace=wrap;html=1;aspect=fixed;strokeColor=none;fillColor=#000000;" vertex="1" parent="1">
          <mxGeometry x="250" y="495" width="40" height="40" as="geometry" />
        </mxCell>
        <mxCell id="7HdaX9VJP-AKowgcOoUk-58" value="&lt;font style=&quot;font-size: 24px;&quot;&gt;x&lt;sub&gt;2&lt;/sub&gt;&lt;/font&gt;" style="text;html=1;align=center;verticalAlign=middle;whiteSpace=wrap;rounded=0;" vertex="1" parent="1">
          <mxGeometry x="100" y="500" width="60" height="30" as="geometry" />
        </mxCell>
        <mxCell id="7HdaX9VJP-AKowgcOoUk-59" value="&lt;font style=&quot;font-size: 24px;&quot;&gt;z&lt;/font&gt;&lt;font style=&quot;font-size: 20px;&quot;&gt;&lt;sub&gt;21&lt;/sub&gt;&lt;/font&gt;" style="text;html=1;align=center;verticalAlign=middle;whiteSpace=wrap;rounded=0;" vertex="1" parent="1">
          <mxGeometry x="240" y="555" width="60" height="30" as="geometry" />
        </mxCell>
        <mxCell id="7HdaX9VJP-AKowgcOoUk-60" value="" style="endArrow=classic;html=1;rounded=0;strokeWidth=3;entryX=0;entryY=0.5;entryDx=0;entryDy=0;" edge="1" parent="1">
          <mxGeometry width="50" height="50" relative="1" as="geometry">
            <mxPoint x="290" y="514.5" as="sourcePoint" />
            <mxPoint x="365" y="515" as="targetPoint" />
          </mxGeometry>
        </mxCell>
        <mxCell id="7HdaX9VJP-AKowgcOoUk-61" value="" style="endArrow=classic;html=1;rounded=0;strokeWidth=3;entryX=0.5;entryY=1;entryDx=0;entryDy=0;exitX=0.5;exitY=0;exitDx=0;exitDy=0;" edge="1" parent="1" source="7HdaX9VJP-AKowgcOoUk-59" target="7HdaX9VJP-AKowgcOoUk-57">
          <mxGeometry width="50" height="50" relative="1" as="geometry">
            <mxPoint x="170" y="529.5" as="sourcePoint" />
            <mxPoint x="260" y="529.5" as="targetPoint" />
            <Array as="points">
              <mxPoint x="270" y="545" />
            </Array>
          </mxGeometry>
        </mxCell>
        <mxCell id="7HdaX9VJP-AKowgcOoUk-72" value="" style="endArrow=classic;html=1;rounded=0;strokeWidth=3;exitX=1;exitY=0.5;exitDx=0;exitDy=0;entryX=0;entryY=1;entryDx=0;entryDy=0;strokeColor=#CC0000;" edge="1" parent="1" source="7HdaX9VJP-AKowgcOoUk-58" target="7HdaX9VJP-AKowgcOoUk-10">
          <mxGeometry width="50" height="50" relative="1" as="geometry">
            <mxPoint x="145" y="400" as="sourcePoint" />
            <mxPoint x="235" y="400" as="targetPoint" />
          </mxGeometry>
        </mxCell>
        <mxCell id="7HdaX9VJP-AKowgcOoUk-73" value="&lt;b&gt;&lt;font style=&quot;font-size: 24px; color: rgb(204, 0, 0);&quot;&gt;a&lt;/font&gt;&lt;/b&gt;" style="text;html=1;align=center;verticalAlign=middle;whiteSpace=wrap;rounded=0;" vertex="1" parent="1">
          <mxGeometry x="160" y="410" width="60" height="30" as="geometry" />
        </mxCell>
        <mxCell id="7HdaX9VJP-AKowgcOoUk-74" value="&lt;font style=&quot;font-size: 24px;&quot;&gt;y&lt;sub&gt;1&lt;/sub&gt;&lt;/font&gt;" style="text;html=1;align=center;verticalAlign=middle;whiteSpace=wrap;rounded=0;" vertex="1" parent="1">
          <mxGeometry x="835" y="295" width="60" height="30" as="geometry" />
        </mxCell>
        <mxCell id="7HdaX9VJP-AKowgcOoUk-76" value="" style="endArrow=none;html=1;rounded=0;strokeColor=#330066;strokeWidth=5;" edge="1" parent="1">
          <mxGeometry width="50" height="50" relative="1" as="geometry">
            <mxPoint x="355" y="330" as="sourcePoint" />
            <mxPoint x="395" y="280" as="targetPoint" />
          </mxGeometry>
        </mxCell>
        <mxCell id="7HdaX9VJP-AKowgcOoUk-79" value="" style="endArrow=none;html=1;rounded=0;strokeColor=#330066;strokeWidth=5;" edge="1" parent="1">
          <mxGeometry width="50" height="50" relative="1" as="geometry">
            <mxPoint x="425" y="280" as="sourcePoint" />
            <mxPoint x="395" y="280" as="targetPoint" />
          </mxGeometry>
        </mxCell>
        <mxCell id="7HdaX9VJP-AKowgcOoUk-80" value="" style="endArrow=none;html=1;rounded=0;strokeColor=#330066;strokeWidth=5;" edge="1" parent="1">
          <mxGeometry width="50" height="50" relative="1" as="geometry">
            <mxPoint x="355" y="330" as="sourcePoint" />
            <mxPoint x="325" y="330" as="targetPoint" />
          </mxGeometry>
        </mxCell>
        <mxCell id="7HdaX9VJP-AKowgcOoUk-82" value="" style="endArrow=none;html=1;rounded=0;strokeColor=#330066;strokeWidth=5;" edge="1" parent="1">
          <mxGeometry width="50" height="50" relative="1" as="geometry">
            <mxPoint x="360" y="535" as="sourcePoint" />
            <mxPoint x="400" y="485" as="targetPoint" />
          </mxGeometry>
        </mxCell>
        <mxCell id="7HdaX9VJP-AKowgcOoUk-83" value="" style="endArrow=none;html=1;rounded=0;strokeColor=#330066;strokeWidth=5;" edge="1" parent="1">
          <mxGeometry width="50" height="50" relative="1" as="geometry">
            <mxPoint x="430" y="485" as="sourcePoint" />
            <mxPoint x="400" y="485" as="targetPoint" />
          </mxGeometry>
        </mxCell>
        <mxCell id="7HdaX9VJP-AKowgcOoUk-84" value="" style="endArrow=none;html=1;rounded=0;strokeColor=#330066;strokeWidth=5;" edge="1" parent="1">
          <mxGeometry width="50" height="50" relative="1" as="geometry">
            <mxPoint x="360" y="535" as="sourcePoint" />
            <mxPoint x="330" y="535" as="targetPoint" />
          </mxGeometry>
        </mxCell>
        <mxCell id="7HdaX9VJP-AKowgcOoUk-107" value="" style="whiteSpace=wrap;html=1;aspect=fixed;fillColor=#ffe6cc;strokeColor=#d79b00;strokeWidth=0;" vertex="1" parent="1">
          <mxGeometry x="650" y="445" width="140" height="140" as="geometry" />
        </mxCell>
        <mxCell id="7HdaX9VJP-AKowgcOoUk-108" value="&lt;font style=&quot;font-size: 22px;&quot;&gt;&lt;font style=&quot;color: rgb(204, 102, 0);&quot;&gt;ADC&lt;/font&gt;&lt;br&gt;&lt;/font&gt;" style="text;html=1;align=center;verticalAlign=middle;whiteSpace=wrap;rounded=0;" vertex="1" parent="1">
          <mxGeometry x="690" y="445" width="60" height="30" as="geometry" />
        </mxCell>
        <mxCell id="7HdaX9VJP-AKowgcOoUk-109" value="&lt;span style=&quot;font-family: &amp;quot;Google Sans&amp;quot;, Arial, sans-serif; font-size: 32px; text-align: left;&quot;&gt;&lt;font style=&quot;color: rgb(255, 255, 255);&quot;&gt;Φ&lt;/font&gt;&lt;/span&gt;" style="shape=hexagon;perimeter=hexagonPerimeter2;whiteSpace=wrap;html=1;fixedSize=1;fillColor=#f0a30a;fontColor=#000000;strokeColor=none;" vertex="1" parent="1">
          <mxGeometry x="680" y="490" width="80" height="50" as="geometry" />
        </mxCell>
        <mxCell id="7HdaX9VJP-AKowgcOoUk-110" value="" style="group" vertex="1" connectable="0" parent="1">
          <mxGeometry x="670" y="470" width="90" height="90" as="geometry" />
        </mxCell>
        <mxCell id="7HdaX9VJP-AKowgcOoUk-111" value="" style="endArrow=none;html=1;rounded=0;strokeWidth=5;fillColor=#f0a30a;strokeColor=#CC6600;" edge="1" parent="7HdaX9VJP-AKowgcOoUk-110">
          <mxGeometry width="50" height="50" relative="1" as="geometry">
            <mxPoint y="90" as="sourcePoint" />
            <mxPoint x="30" y="60" as="targetPoint" />
            <Array as="points">
              <mxPoint y="60" />
            </Array>
          </mxGeometry>
        </mxCell>
        <mxCell id="7HdaX9VJP-AKowgcOoUk-112" value="" style="endArrow=none;html=1;rounded=0;strokeWidth=5;fillColor=#f0a30a;strokeColor=#CC6600;" edge="1" parent="7HdaX9VJP-AKowgcOoUk-110">
          <mxGeometry width="50" height="50" relative="1" as="geometry">
            <mxPoint x="30" y="60" as="sourcePoint" />
            <mxPoint x="60" y="30" as="targetPoint" />
            <Array as="points">
              <mxPoint x="30" y="30" />
            </Array>
          </mxGeometry>
        </mxCell>
        <mxCell id="7HdaX9VJP-AKowgcOoUk-113" value="" style="endArrow=none;html=1;rounded=0;strokeWidth=5;fillColor=#f0a30a;strokeColor=#CC6600;" edge="1" parent="7HdaX9VJP-AKowgcOoUk-110">
          <mxGeometry width="50" height="50" relative="1" as="geometry">
            <mxPoint x="60" y="30" as="sourcePoint" />
            <mxPoint x="90" as="targetPoint" />
            <Array as="points">
              <mxPoint x="60" />
            </Array>
          </mxGeometry>
        </mxCell>
        <mxCell id="7HdaX9VJP-AKowgcOoUk-114" value="" style="rounded=0;whiteSpace=wrap;html=1;fillColor=#dae8fc;strokeColor=none;" vertex="1" parent="1">
          <mxGeometry x="500" y="445" width="120" height="140" as="geometry" />
        </mxCell>
        <mxCell id="7HdaX9VJP-AKowgcOoUk-115" value="" style="endArrow=classic;html=1;rounded=0;strokeWidth=3;entryX=0.5;entryY=1;entryDx=0;entryDy=0;exitX=0.5;exitY=0;exitDx=0;exitDy=0;" edge="1" parent="1" source="7HdaX9VJP-AKowgcOoUk-117" target="7HdaX9VJP-AKowgcOoUk-116">
          <mxGeometry width="50" height="50" relative="1" as="geometry">
            <mxPoint x="550" y="565" as="sourcePoint" />
            <mxPoint x="640" y="555" as="targetPoint" />
          </mxGeometry>
        </mxCell>
        <mxCell id="7HdaX9VJP-AKowgcOoUk-116" value="&lt;b&gt;&lt;font style=&quot;font-size: 20px; color: rgb(255, 255, 255);&quot;&gt;+&lt;/font&gt;&lt;/b&gt;" style="ellipse;whiteSpace=wrap;html=1;aspect=fixed;fillColor=#000000;strokeColor=none;" vertex="1" parent="1">
          <mxGeometry x="540" y="495" width="40" height="40" as="geometry" />
        </mxCell>
        <mxCell id="7HdaX9VJP-AKowgcOoUk-117" value="&lt;font style=&quot;font-size: 24px;&quot;&gt;z&lt;/font&gt;&lt;font style=&quot;font-size: 20px;&quot;&gt;&lt;sub&gt;12&lt;/sub&gt;&lt;/font&gt;" style="text;html=1;align=center;verticalAlign=middle;whiteSpace=wrap;rounded=0;" vertex="1" parent="1">
          <mxGeometry x="530" y="555" width="60" height="30" as="geometry" />
        </mxCell>
        <mxCell id="7HdaX9VJP-AKowgcOoUk-118" value="" style="endArrow=classic;html=1;rounded=0;strokeWidth=3;entryX=0;entryY=0.5;entryDx=0;entryDy=0;" edge="1" parent="1" target="7HdaX9VJP-AKowgcOoUk-109">
          <mxGeometry width="50" height="50" relative="1" as="geometry">
            <mxPoint x="580" y="514.5" as="sourcePoint" />
            <mxPoint x="720.0886917960088" y="514.889135254989" as="targetPoint" />
          </mxGeometry>
        </mxCell>
        <mxCell id="7HdaX9VJP-AKowgcOoUk-119" value="&lt;font style=&quot;color: rgb(0, 0, 204); font-size: 18px;&quot;&gt;Remaining Hardware&lt;/font&gt;" style="text;html=1;align=center;verticalAlign=middle;whiteSpace=wrap;rounded=0;" vertex="1" parent="1">
          <mxGeometry x="545" y="455" width="30" height="30" as="geometry" />
        </mxCell>
        <mxCell id="7HdaX9VJP-AKowgcOoUk-120" value="" style="endArrow=classic;html=1;rounded=0;strokeWidth=3;exitX=1;exitY=0.5;exitDx=0;exitDy=0;" edge="1" parent="1" source="7HdaX9VJP-AKowgcOoUk-109">
          <mxGeometry width="50" height="50" relative="1" as="geometry">
            <mxPoint x="765" y="515" as="sourcePoint" />
            <mxPoint x="835" y="515" as="targetPoint" />
          </mxGeometry>
        </mxCell>
        <mxCell id="7HdaX9VJP-AKowgcOoUk-121" value="&lt;font style=&quot;font-size: 24px;&quot;&gt;y&lt;sub&gt;2&lt;/sub&gt;&lt;/font&gt;" style="text;html=1;align=center;verticalAlign=middle;whiteSpace=wrap;rounded=0;" vertex="1" parent="1">
          <mxGeometry x="835" y="500" width="60" height="30" as="geometry" />
        </mxCell>
        <mxCell id="7HdaX9VJP-AKowgcOoUk-66" value="" style="endArrow=classic;html=1;rounded=0;strokeWidth=3;entryX=0;entryY=0.5;entryDx=0;entryDy=0;" edge="1" parent="1" target="7HdaX9VJP-AKowgcOoUk-116">
          <mxGeometry width="50" height="50" relative="1" as="geometry">
            <mxPoint x="425" y="514.5" as="sourcePoint" />
            <mxPoint x="550" y="514.5" as="targetPoint" />
          </mxGeometry>
        </mxCell>
      </root>
    </mxGraphModel>
  </diagram>
</mxfile>
